<svg width="30" height="30" viewBox="0 0 30 30" fill="none" xmlns="http://www.w3.org/2000/svg">
<path d="M19.7281 14.75C19.7281 11.9844 17.5156 9.77188 14.75 9.77188C11.9844 9.77188 9.77188 11.9844 9.77188 14.75C9.77188 17.5156 11.9844 19.7281 14.75 19.7281C17.5156 19.7281 19.7281 17.5156 19.7281 14.75ZM22.3094 14.75C22.3094 18.9906 18.9906 22.3094 14.75 22.3094C10.5094 22.3094 7.19063 18.9906 7.19063 14.75C7.19063 10.5094 10.5094 7.19063 14.75 7.19063C18.9906 7.19063 22.3094 10.5094 22.3094 14.75ZM24.3375 6.82187C24.3375 7.92812 23.6 8.66562 22.4937 8.66562C21.3875 8.66562 20.65 7.92812 20.65 6.82187C20.65 5.71562 21.3875 4.97812 22.4937 4.97812C23.6 4.97812 24.3375 5.9 24.3375 6.82187ZM14.75 2.58125C12.5375 2.58125 7.92813 2.39688 6.08438 3.13438C4.79375 3.6875 3.6875 4.79375 3.31875 6.08438C2.58125 7.92813 2.76562 12.5375 2.76562 14.75C2.76562 16.9625 2.58125 21.5719 3.31875 23.4156C3.6875 24.7062 4.79375 25.8125 6.08438 26.1813C7.92813 26.9188 12.7219 26.7344 14.75 26.7344C16.7781 26.7344 21.5719 26.9188 23.4156 26.1813C24.7062 25.6281 25.6281 24.7062 26.1813 23.4156C26.9188 21.3875 26.7344 16.7781 26.7344 14.75C26.7344 12.7219 26.9188 7.92813 26.1813 6.08438C25.8125 4.79375 24.7062 3.6875 23.4156 3.31875C21.5719 2.39687 16.9625 2.58125 14.75 2.58125ZM29.5 14.75V20.8344C29.5 23.0469 28.7625 25.2594 27.1031 27.1031C25.4438 28.7625 23.2313 29.5 20.8344 29.5H8.66562C6.45312 29.5 4.24062 28.7625 2.39687 27.1031C0.921875 25.4438 0 23.2313 0 20.8344V8.66562C0 6.26875 0.921875 4.05625 2.39687 2.39687C4.24062 0.921875 6.45312 0 8.66562 0H20.8344C23.0469 0 25.2594 0.7375 27.1031 2.39687C28.5781 4.05625 29.5 6.26875 29.5 8.66562V14.75Z" fill="#333333"/>
</svg>
