<svg width="582" height="649" viewBox="0 0 582 649" fill="none" xmlns="http://www.w3.org/2000/svg">
<mask id="mask0_41_20" style="mask-type:luminance" maskUnits="userSpaceOnUse" x="270" y="255" width="114" height="313">
<path d="M270.487 255.699H383.102V567.665H270.487V255.699Z" fill="white"/>
</mask>
<g mask="url(#mask0_41_20)">
<path d="M335.644 502.454C335.644 502.454 344.155 523.581 339.112 542.496L333.521 545.795C332.811 533.863 332.379 514.792 335.644 502.454ZM270.724 273.195C271.163 274.121 272.164 275.94 273.86 277.657C275.929 279.759 277.531 282.274 278.559 285.039C280.81 291.11 284.332 300.913 285.427 305.618C286.644 310.81 289.761 327.806 294.96 342.476C298.428 352.251 299.712 362.669 298.549 372.972C297.312 383.931 297.157 398.851 302.22 412.27C311.678 437.338 304.465 465.718 316.113 489.366C327.761 513.014 319.723 554.165 319.723 554.165C319.723 554.165 313.531 557.065 307.602 557.099C305.425 557.112 304.458 559.844 306.121 561.243C310.691 565.076 318.925 569.119 332.48 567.152C336.442 566.577 338.645 562.108 336.57 558.681C336.367 558.356 336.137 558.052 335.874 557.768C338.713 559.053 342.269 559.891 346.65 559.634C349.658 559.458 351.997 556.957 351.977 553.942C351.95 550.636 351.531 546.343 349.834 543.287C349.834 543.287 358.312 511.831 349.361 475.176L360.401 469.504C360.401 469.504 355.668 428.982 346.366 415.739C337.064 402.495 335.015 390.198 341.005 383.735C341.005 383.735 362.976 399.804 371.393 430.341C372.461 435.222 371.366 439.468 370.649 441.496C370.359 442.327 370.778 443.247 371.623 443.564C372.475 443.875 373.428 443.395 373.732 442.537C374.557 440.198 374.631 437.338 374.631 437.338C376.085 438.264 376.801 440.975 377.153 443.179C377.396 444.747 378.714 445.971 380.303 445.998C382.014 446.018 383.447 444.734 383.589 443.071C384.278 435.134 381.669 427.36 381.669 427.36C378.349 416.306 367.58 385.891 343.844 361.838C350.044 360.492 357.872 356.997 361.78 348.094C368.817 332.031 355.398 321.032 347.035 318.395C338.679 315.752 335.766 315.035 333.176 309.154C333.176 309.154 331.912 313.933 334.67 317.638C334.67 317.638 328.343 320.417 323.915 326.88L321.778 326.373C320.609 326.102 319.737 327.441 320.473 328.394L321.94 330.314C320.311 333.775 319.344 338.028 319.784 343.138C318.581 342.449 317.364 341.773 316.113 341.124C316.113 341.124 303.701 332.612 299.8 315.941C295.893 299.27 290.579 288.629 287.381 281.889C284.319 275.419 288.111 260.465 275.273 255.821C274.239 255.442 273.09 256.01 272.752 257.085C272.495 257.917 272.853 258.809 273.563 259.309C275.226 260.492 277.633 263.014 276.842 267.462C276.842 267.462 275.801 263.109 272.535 261.479C271.981 261.202 271.298 261.418 271.008 261.973L270.98 262.027C270.71 262.554 270.893 263.19 271.386 263.521C272.833 264.461 275.382 267.104 274.868 273.851C274.868 273.851 273.32 273.351 272.373 272.188C272.042 271.796 271.447 271.694 271.028 271.999C270.649 272.282 270.528 272.783 270.724 273.195Z" fill="#DE9C0D"/>
</g>
<path d="M263.814 179.388L255.465 196.302L236.8 199.013L250.307 212.176L247.123 230.767L263.814 221.992L280.506 230.767L277.321 212.176L290.822 199.013L272.163 196.302L263.814 179.388Z" fill="#DE9C0D"/>
<path d="M183.014 282.47L181.067 295.687L169.08 301.582L181.053 307.518L182.953 320.741L192.296 311.195L205.458 313.474L199.259 301.636L205.499 289.819L192.323 292.05L183.014 282.47Z" fill="#DE9C0D"/>
<path d="M311.739 90.8329L309.799 104.05L297.806 109.945L309.778 115.88L311.678 129.11L321.021 119.551L334.183 121.836L327.991 109.999L334.224 98.1815L321.048 100.419L311.739 90.8329Z" fill="#DE9C0D"/>
<path d="M367.228 225.304L366.309 231.565L360.63 234.357L366.295 237.162L367.194 243.429L371.623 238.906L377.856 239.981L374.922 234.377L377.869 228.786L371.636 229.847L367.228 225.304Z" fill="#DE9C0D"/>
<mask id="mask1_41_20" style="mask-type:luminance" maskUnits="userSpaceOnUse" x="131" y="169" width="19" height="20">
<path d="M131.29 169.605H149.333V188.643H131.29V169.605Z" fill="white"/>
</mask>
<g mask="url(#mask1_41_20)">
<path d="M137.888 170.329L136.969 176.589L131.29 179.374L136.955 182.186L137.861 188.447L142.282 183.924L148.515 185.005L145.581 179.401L148.529 173.803L142.296 174.865L137.888 170.329Z" fill="#DE9C0D"/>
</g>
<mask id="mask2_41_20" style="mask-type:luminance" maskUnits="userSpaceOnUse" x="166" y="81" width="34" height="35">
<path d="M166.64 81.1993H199.523V115.955H166.64V81.1993Z" fill="white"/>
</mask>
<g mask="url(#mask2_41_20)">
<path d="M179.079 81.321L177.396 92.7732L166.999 97.8841L177.376 103.022L179.025 114.481L187.118 106.206L198.522 108.18L193.155 97.9246L198.556 87.6894L187.145 89.6228L179.079 81.321Z" fill="#DE9C0D"/>
</g>
</svg>
