<svg width="29" height="29" viewBox="0 0 29 29" fill="none" xmlns="http://www.w3.org/2000/svg">
<path d="M24.6499 4.21957C23.3206 2.87677 21.7372 1.8121 19.992 1.08766C18.2469 0.363215 16.375 -0.00649615 14.4855 8.63757e-05C6.56848 8.63757e-05 0.116 6.45257 0.116 14.3695C0.116 16.907 0.782998 19.372 2.02999 21.547L0 29L7.61248 26.999C9.71497 28.1445 12.0785 28.7535 14.4855 28.7535C22.4024 28.7535 28.8549 22.301 28.8549 14.384C28.8549 10.5416 27.3614 6.93107 24.6499 4.21957ZM14.4855 26.3175C12.3395 26.3175 10.237 25.7375 8.39548 24.65L7.96048 24.389L3.43649 25.578L4.63999 21.17L4.34999 20.7205C3.15772 18.8166 2.52465 16.6159 2.52299 14.3695C2.52299 7.78656 7.88798 2.42158 14.471 2.42158C17.6609 2.42158 20.6624 3.66858 22.9099 5.93057C24.0228 7.03831 24.9047 8.35592 25.5045 9.80702C26.1044 11.2581 26.4103 12.8139 26.4044 14.384C26.4334 20.967 21.0684 26.3175 14.4855 26.3175ZM21.0394 17.3855C20.6769 17.2115 18.9079 16.3415 18.5889 16.211C18.2554 16.095 18.0234 16.037 17.7769 16.385C17.5304 16.7475 16.849 17.5595 16.646 17.7915C16.443 18.038 16.2255 18.067 15.863 17.8785C15.5005 17.7045 14.3405 17.313 12.9775 16.095C11.9045 15.138 11.194 13.9635 10.9765 13.601C10.7735 13.2385 10.9475 13.05 11.136 12.8615C11.2955 12.702 11.4985 12.441 11.6725 12.238C11.8465 12.035 11.919 11.8756 12.035 11.6436C12.151 11.3971 12.093 11.1941 12.006 11.0201C11.919 10.8461 11.194 9.07706 10.904 8.35206C10.614 7.65606 10.3095 7.74306 10.092 7.72856H9.39597C9.14947 7.72856 8.77247 7.81556 8.43897 8.17806C8.11998 8.54056 7.19198 9.41056 7.19198 11.1796C7.19198 12.9485 8.48248 14.6595 8.65648 14.8915C8.83047 15.138 11.194 18.763 14.79 20.3145C15.6455 20.6915 16.3125 20.909 16.8345 21.0685C17.6899 21.344 18.4729 21.3005 19.0964 21.2135C19.7924 21.112 21.2279 20.3435 21.5179 19.5025C21.8224 18.6615 21.8224 17.951 21.7209 17.7915C21.6194 17.632 21.4019 17.5595 21.0394 17.3855Z" fill="#333333"/>
</svg>
